<?xml version="1.0" encoding="UTF-8" standalone="no"?>
<svg width="320px" height="176px" viewBox="0 0 320 176" version="1.1" xmlns="http://www.w3.org/2000/svg" xmlns:xlink="http://www.w3.org/1999/xlink" xmlns:sketch="http://www.bohemiancoding.com/sketch/ns">
    <!-- Generator: Sketch 3.0.4 (8054) - http://www.bohemiancoding.com/sketch -->
    <title>black back</title>
    <desc>Created with Sketch.</desc>
    <defs></defs>
    <g id="Page-1" stroke="none" stroke-width="1" fill="none" fill-rule="evenodd" sketch:type="MSPage">
        <g id="black-back" sketch:type="MSLayerGroup">
            <path d="M238.459146,77.8693038 C238.459146,81.5310127 232.435806,84.7231013 231.932938,88.2474684 C231.418993,91.8582278 236.294819,96.6120253 235.291299,100.038924 C234.265625,103.525633 227.588778,104.89019 226.097896,108.148734 C224.591507,111.444937 227.923285,117.386076 225.976056,120.407595 C224.015535,123.446835 217.227924,122.873101 214.864222,125.593354 C212.502736,128.320253 214.029063,134.961392 211.304271,137.322785 C208.586125,139.681962 202.230493,137.229747 199.188917,139.187975 C196.169493,141.132911 195.770743,147.937975 192.47441,149.446519 C189.215736,150.937342 183.817104,146.790506 180.323611,147.811709 C176.898792,148.817405 174.592688,155.232595 170.979569,155.746519 C167.457278,156.249367 163.44541,150.746835 159.785771,150.746835 C156.126132,150.746835 152.109833,156.249367 148.587542,155.746519 C144.974424,155.232595 142.67275,148.817405 139.245715,147.811709 C135.756653,146.790506 130.35359,150.937342 127.097132,149.446519 C123.800799,147.937975 123.404264,141.132911 120.382625,139.187975 C117.341049,137.229747 110.985417,139.681962 108.267271,137.322785 C105.540264,134.959177 107.068806,128.318038 104.705104,125.591139 C102.345833,122.873101 95.5537917,123.446835 93.5954861,120.40538 C91.6504722,117.383861 94.9800347,111.442722 93.4736458,108.148734 C91.9827639,104.887975 85.3037014,103.523418 84.2802431,100.036709 C83.2767222,96.6098101 88.1525486,91.8582278 87.6386042,88.2474684 C87.1335208,84.7231013 81.1146111,81.5310127 81.1146111,77.8693038 C81.1146111,74.2053797 87.1335208,71.0132911 87.6386042,67.4889241 C88.1525486,63.8803797 83.2767222,59.1265823 84.2802431,55.6974684 C85.3037014,52.2107595 91.9827639,50.8462025 93.4736458,47.5876582 C94.9800347,44.2914557 91.6504722,38.3503165 93.5954861,35.3287975 C95.5537917,32.289557 102.345833,32.8632911 104.705104,30.143038 C107.071021,27.4161392 105.540264,20.775 108.267271,18.4113924 C110.985417,16.0522152 117.341049,18.5066456 120.382625,16.5484177 C123.404264,14.603481 123.800799,7.79620253 127.097132,6.28987342 C130.355806,4.79905063 135.756653,8.94367089 139.245715,7.92246835 C142.67275,6.91898734 144.974424,0.503797468 148.591972,-0.0101265823 C152.109833,-0.512974684 156.126132,4.98955696 159.785771,4.98955696 C163.44541,4.98955696 167.457278,-0.512974684 170.984,-0.0101265823 C174.592688,0.503797468 176.898792,6.91898734 180.323611,7.92246835 C183.817104,8.94588608 189.215736,4.79905063 192.47441,6.28987342 C195.770743,7.79841772 196.169493,14.603481 199.188917,16.5484177 C202.230493,18.5066456 208.586125,16.0544304 211.304271,18.4136076 C214.033493,20.7772152 212.502736,27.4183544 214.864222,30.1452532 C217.227924,32.8655063 224.015535,32.289557 225.976056,35.3310127 C227.923285,38.3525316 224.591507,44.2936709 226.097896,47.5876582 C227.588778,50.8484177 234.270056,52.2129747 235.291299,55.6996835 C236.294819,59.1265823 231.418993,63.8803797 231.932938,67.4911392 C232.435806,71.0132911 238.459146,74.2053797 238.459146,77.8693038" id="Fill-338" fill="#333333" sketch:type="MSShapeGroup"></path>
            <path d="M27.7397083,157.957278 C37.3207847,152.771519 46.0046736,146.899051 56.1705833,143.177532 C63.1088333,140.634494 70.4037431,139.582278 77.7628958,140.408544 C83.7131319,141.079747 90.2105417,143.476582 94.8803472,147.204747 C95.2325764,147.486076 95.0243403,147.612342 94.6189444,147.435127 C91.6283194,146.13481 81.2408819,138.281962 56.502875,149.823101 C37.2210972,158.816772 26.2421806,167.393987 12.8486111,167.323101 C8.32501389,167.300949 3.72609722,164.562975 2.88207639,159.893354 C0.786423611,148.276899 14.2996181,142.329114 23.2449097,142.672468 C29.0600139,142.896203 32.6864236,145.095886 33.6234861,147.937975 C33.8516597,148.622468 33.9380556,149.16519 33.2114444,148.726582 C33.1250486,148.675633 32.4604653,148.283544 31.9022153,148.070886 C28.5770833,146.799367 18.0700208,143.966139 9.15352778,148.657911 C4.76284722,150.968354 1.00130556,156.747785 4.58119444,161.271203 C6.27809722,163.413291 9.0915,163.953797 11.6678681,163.876266 C17.4962639,163.705696 22.6179861,160.728481 27.7397083,157.957278" id="Fill-361" fill="#333333" sketch:type="MSShapeGroup"></path>
            <path d="M67.0963333,149.036709 C74.4399792,146.349684 80.2572986,145.658544 84.77425,146.132595 C90.7621458,146.763924 96.5484514,150.150949 97.3149375,150.784494 C97.5652639,150.988291 97.414625,151.167722 97.095625,151.019304 C89.2646181,147.315506 80.8288403,148.307911 71.456,153.349684 C61.2347083,158.85 39.3477639,171.842089 27.2390556,174.150316 C20.4226458,175.446203 13.6062361,175.867089 7.456625,172.595253 C-1.67918056,167.739557 0.0155069444,158.752532 0.673444444,157.153165 C0.890541667,156.623734 0.923770833,156.989241 0.903833333,157.119937 C0.283555556,161.260127 1.83203472,165.573101 5.57806944,167.848101 C8.50888194,169.631329 11.9204097,170.289241 15.2123125,170.16519 C24.6493958,169.812975 33.2291667,165.632911 41.6450069,161.441772 C50.202625,157.177532 58.1355347,152.31962 67.0963333,149.036709" id="Fill-362" fill="#333333" sketch:type="MSShapeGroup"></path>
            <path d="M291.831833,157.957278 C282.252972,152.771519 273.564653,146.899051 263.400958,143.177532 C256.462708,140.634494 249.167799,139.582278 241.806431,140.408544 C235.86284,141.079747 229.358785,143.476582 224.691194,147.204747 C224.341181,147.486076 224.547201,147.612342 224.950382,147.435127 C227.943222,146.13481 238.328444,138.281962 263.068667,149.823101 C282.348229,158.816772 293.329361,167.393987 306.720715,167.323101 C311.246528,167.300949 315.845444,164.562975 316.689465,159.893354 C318.782903,148.276899 305.271924,142.329114 296.328847,142.672468 C290.513743,142.896203 286.882903,145.095886 285.948056,147.937975 C285.719882,148.622468 285.633486,149.16519 286.360097,148.726582 C286.446493,148.675633 287.111076,148.283544 287.669326,148.070886 C290.992243,146.799367 301.503736,143.966139 310.415799,148.657911 C314.806479,150.968354 318.572451,156.747785 314.988132,161.271203 C313.293444,163.413291 310.480042,163.953797 307.901458,163.876266 C302.073063,163.705696 296.95134,160.728481 291.831833,157.957278" id="Fill-363" fill="#333333" sketch:type="MSShapeGroup"></path>
            <path d="M252.477424,149.036709 C245.129347,146.349684 239.314243,145.658544 234.797292,146.132595 C228.809396,146.763924 223.020875,150.150949 222.254389,150.784494 C222.008493,150.988291 222.154701,151.167722 222.475917,151.019304 C230.306924,147.315506 238.742701,148.307911 248.115542,153.349684 C258.334618,158.85 280.223778,171.842089 292.330271,174.150316 C299.148896,175.446203 305.96309,175.867089 312.117132,172.595253 C321.250722,167.739557 319.553819,158.752532 318.895882,157.153165 C318.678785,156.623734 318.649986,156.989241 318.667708,157.119937 C319.290201,161.260127 317.741722,165.573101 313.993472,167.848101 C311.060444,169.631329 307.651132,170.289241 304.36366,170.16519 C294.922146,169.812975 286.342375,165.632911 277.926535,161.441772 C269.368917,157.177532 261.438222,152.31962 252.477424,149.036709" id="Fill-364" fill="#333333" sketch:type="MSShapeGroup"></path>
            <path d="M162.217423,101.688429 C151.225819,94.4548568 148.178854,79.67659 155.418078,68.6827396 C162.65462,57.6942534 177.436155,54.6527735 188.425077,61.8890282 C199.419364,69.125283 202.460964,83.9035498 195.224423,94.894718 C187.985198,105.888568 173.209027,108.927366 162.217423,101.688429 L162.217423,101.688429 Z M194.854281,60.0196177 L208.766787,52.9121029 L208.533437,44.6512931 L196.544059,36.7552464 L188.446535,39.2039864 L187.813538,55.3527966 C174.850526,49.2081489 159.009527,53.3814671 150.893227,65.7083117 C142.009822,79.1964975 145.746109,97.3327298 159.237513,106.218464 C172.726234,115.098835 190.865868,111.36806 199.749273,97.8718281 C207.819975,85.6173996 205.470379,69.522231 194.854281,60.0196177 L194.854281,60.0196177 Z" id="Fill-499" fill="#FFFFFF" sketch:type="MSShapeGroup"></path>
            <path d="M137.184567,51.7775826 C121.660066,51.7775826 109.029645,64.4101845 109.029645,79.9340698 C109.029645,95.4579551 121.660066,108.090557 137.184567,108.090557 C152.71175,108.090557 165.342171,95.4579551 165.342171,79.9340698 C165.342171,64.4101845 152.71175,51.7775826 137.184567,51.7775826 L137.184567,51.7775826 Z M137.184567,113.988453 C118.406572,113.988453 103.128832,98.7140015 103.128832,79.9340698 C103.128832,61.154138 118.406572,45.8796863 137.184567,45.8796863 C155.965244,45.8796863 171.245666,61.154138 171.245666,79.9340698 C171.245666,98.7140015 155.965244,113.988453 137.184567,113.988453 L137.184567,113.988453 Z" id="Fill-500" fill="#FFFFFF" sketch:type="MSShapeGroup"></path>
        </g>
    </g>
</svg>